<svg xmlns="http://www.w3.org/2000/svg" viewBox="0 0 64 64" shape-rendering="crispEdges">
  <rect x="2" y="2" width="60" height="60" rx="12" fill="#e85a71" stroke="#b83550" stroke-width="2"/>
  <rect x="9" y="9" width="46" height="46" rx="4" fill="#1a1a1a"/>
  <rect x="12" y="12" width="40" height="40" rx="2" fill="#9bbc0f"/>
  <g fill="#0f380f">
    <rect x="24" y="22" width="16" height="12"/><rect x="22" y="24" width="2" height="8"/><rect x="40" y="24" width="2" height="8"/>
    <rect x="26" y="34" width="12" height="8"/><rect x="24" y="42" width="4" height="4"/><rect x="36" y="42" width="4" height="4"/>
    <rect x="22" y="18" width="4" height="4"/><rect x="38" y="18" width="4" height="4"/>
  </g>
  <g fill="#cee06e"><rect x="27" y="26" width="3" height="3"/><rect x="34" y="26" width="3" height="3"/><rect x="29" y="36" width="6" height="4"/></g>
  <rect x="30" y="31" width="4" height="2" fill="#306230"/>
</svg>
